<svg id="wave" style="transform:rotate(0deg); transition: 0.3s" viewBox="0 0 1440 100" version="1.1" xmlns="http://www.w3.org/2000/svg"><defs><linearGradient id="sw-gradient-0" x1="0" x2="0" y1="1" y2="0"><stop stop-color="rgba(18, 79, 136, 1)" offset="0%"></stop><stop stop-color="rgba(35, 129, 218, 1)" offset="100%"></stop></linearGradient></defs><path style="transform:translate(0, 0px); opacity:1" fill="url(#sw-gradient-0)" d="M0,10L30,23.3C60,37,120,63,180,68.3C240,73,300,57,360,48.3C420,40,480,40,540,36.7C600,33,660,27,720,25C780,23,840,27,900,38.3C960,50,1020,70,1080,66.7C1140,63,1200,37,1260,21.7C1320,7,1380,3,1440,15C1500,27,1560,53,1620,68.3C1680,83,1740,87,1800,86.7C1860,87,1920,83,1980,81.7C2040,80,2100,80,2160,68.3C2220,57,2280,33,2340,20C2400,7,2460,3,2520,10C2580,17,2640,33,2700,35C2760,37,2820,23,2880,20C2940,17,3000,23,3060,31.7C3120,40,3180,50,3240,46.7C3300,43,3360,27,3420,25C3480,23,3540,37,3600,40C3660,43,3720,37,3780,40C3840,43,3900,57,3960,53.3C4020,50,4080,30,4140,25C4200,20,4260,30,4290,35L4320,40L4320,100L4290,100C4260,100,4200,100,4140,100C4080,100,4020,100,3960,100C3900,100,3840,100,3780,100C3720,100,3660,100,3600,100C3540,100,3480,100,3420,100C3360,100,3300,100,3240,100C3180,100,3120,100,3060,100C3000,100,2940,100,2880,100C2820,100,2760,100,2700,100C2640,100,2580,100,2520,100C2460,100,2400,100,2340,100C2280,100,2220,100,2160,100C2100,100,2040,100,1980,100C1920,100,1860,100,1800,100C1740,100,1680,100,1620,100C1560,100,1500,100,1440,100C1380,100,1320,100,1260,100C1200,100,1140,100,1080,100C1020,100,960,100,900,100C840,100,780,100,720,100C660,100,600,100,540,100C480,100,420,100,360,100C300,100,240,100,180,100C120,100,60,100,30,100L0,100Z"></path></svg>